%TF.GenerationSoftware,KiCad,Pcbnew,6.0.0*%
%TF.CreationDate,2022-01-11T14:05:16+01:00*%
%TF.ProjectId,main,6d61696e-2e6b-4696-9361-645f70636258,v.1.1.0*%
%TF.SameCoordinates,Original*%
%TF.FileFunction,Paste,Top*%
%TF.FilePolarity,Positive*%
%FSLAX46Y46*%
G04 Gerber Fmt 4.6, Leading zero omitted, Abs format (unit mm)*
G04 Created by KiCad (PCBNEW 6.0.0) date 2022-01-11 14:05:16*
%MOMM*%
%LPD*%
G01*
G04 APERTURE LIST*
G04 Aperture macros list*
%AMRoundRect*
0 Rectangle with rounded corners*
0 $1 Rounding radius*
0 $2 $3 $4 $5 $6 $7 $8 $9 X,Y pos of 4 corners*
0 Add a 4 corners polygon primitive as box body*
4,1,4,$2,$3,$4,$5,$6,$7,$8,$9,$2,$3,0*
0 Add four circle primitives for the rounded corners*
1,1,$1+$1,$2,$3*
1,1,$1+$1,$4,$5*
1,1,$1+$1,$6,$7*
1,1,$1+$1,$8,$9*
0 Add four rect primitives between the rounded corners*
20,1,$1+$1,$2,$3,$4,$5,0*
20,1,$1+$1,$4,$5,$6,$7,0*
20,1,$1+$1,$6,$7,$8,$9,0*
20,1,$1+$1,$8,$9,$2,$3,0*%
G04 Aperture macros list end*
%ADD10RoundRect,0.200000X-0.275000X0.200000X-0.275000X-0.200000X0.275000X-0.200000X0.275000X0.200000X0*%
%ADD11RoundRect,0.200000X0.200000X0.275000X-0.200000X0.275000X-0.200000X-0.275000X0.200000X-0.275000X0*%
%ADD12RoundRect,0.225000X-0.225000X-0.250000X0.225000X-0.250000X0.225000X0.250000X-0.225000X0.250000X0*%
%ADD13RoundRect,0.218750X0.256250X-0.218750X0.256250X0.218750X-0.256250X0.218750X-0.256250X-0.218750X0*%
%ADD14RoundRect,0.225000X-0.250000X0.225000X-0.250000X-0.225000X0.250000X-0.225000X0.250000X0.225000X0*%
%ADD15RoundRect,0.125000X-0.625000X-0.125000X0.625000X-0.125000X0.625000X0.125000X-0.625000X0.125000X0*%
%ADD16RoundRect,0.125000X-0.125000X-0.625000X0.125000X-0.625000X0.125000X0.625000X-0.125000X0.625000X0*%
%ADD17RoundRect,0.250000X-0.475000X0.250000X-0.475000X-0.250000X0.475000X-0.250000X0.475000X0.250000X0*%
%ADD18RoundRect,0.250000X-0.650000X0.325000X-0.650000X-0.325000X0.650000X-0.325000X0.650000X0.325000X0*%
%ADD19RoundRect,0.150000X-0.512500X-0.150000X0.512500X-0.150000X0.512500X0.150000X-0.512500X0.150000X0*%
%ADD20RoundRect,0.200000X-0.200000X-0.275000X0.200000X-0.275000X0.200000X0.275000X-0.200000X0.275000X0*%
G04 APERTURE END LIST*
D10*
%TO.C,R11*%
X64770000Y-59881000D03*
X64770000Y-61531000D03*
%TD*%
D11*
%TO.C,R38*%
X183959000Y-89154000D03*
X182309000Y-89154000D03*
%TD*%
D10*
%TO.C,R4*%
X37338000Y-66485000D03*
X37338000Y-68135000D03*
%TD*%
D11*
%TO.C,R30*%
X145859000Y-75946000D03*
X144209000Y-75946000D03*
%TD*%
D12*
%TO.C,C3*%
X53581000Y-102616000D03*
X55131000Y-102616000D03*
%TD*%
D11*
%TO.C,R15*%
X129349000Y-75946000D03*
X127699000Y-75946000D03*
%TD*%
%TO.C,R35*%
X83629000Y-75946000D03*
X81979000Y-75946000D03*
%TD*%
%TO.C,R52*%
X153479000Y-89154000D03*
X151829000Y-89154000D03*
%TD*%
%TO.C,R33*%
X88709000Y-75946000D03*
X87059000Y-75946000D03*
%TD*%
%TO.C,R39*%
X131889000Y-89154000D03*
X130239000Y-89154000D03*
%TD*%
%TO.C,R27*%
X103949000Y-75946000D03*
X102299000Y-75946000D03*
%TD*%
%TO.C,R14*%
X181419000Y-75946000D03*
X179769000Y-75946000D03*
%TD*%
D13*
%TO.C,D1*%
X55118000Y-111277500D03*
X55118000Y-109702500D03*
%TD*%
D11*
%TO.C,R45*%
X121729000Y-89154000D03*
X120079000Y-89154000D03*
%TD*%
D14*
%TO.C,C6*%
X47244000Y-82537000D03*
X47244000Y-84087000D03*
%TD*%
D11*
%TO.C,R21*%
X119189000Y-75946000D03*
X117539000Y-75946000D03*
%TD*%
%TO.C,R32*%
X140779000Y-75946000D03*
X139129000Y-75946000D03*
%TD*%
%TO.C,R34*%
X135699000Y-75946000D03*
X134049000Y-75946000D03*
%TD*%
%TO.C,R42*%
X178879000Y-89154000D03*
X177229000Y-89154000D03*
%TD*%
%TO.C,R54*%
X148399000Y-89154000D03*
X146749000Y-89154000D03*
%TD*%
%TO.C,R29*%
X98869000Y-75946000D03*
X97219000Y-75946000D03*
%TD*%
%TO.C,R20*%
X171259000Y-75946000D03*
X169609000Y-75946000D03*
%TD*%
%TO.C,R46*%
X168719000Y-89154000D03*
X167069000Y-89154000D03*
%TD*%
%TO.C,R19*%
X124269000Y-75946000D03*
X122619000Y-75946000D03*
%TD*%
D15*
%TO.C,U3*%
X50181000Y-77210000D03*
X50181000Y-78010000D03*
X50181000Y-78810000D03*
X50181000Y-79610000D03*
X50181000Y-80410000D03*
X50181000Y-81210000D03*
X50181000Y-82010000D03*
X50181000Y-82810000D03*
D16*
X51556000Y-84185000D03*
X52356000Y-84185000D03*
X53156000Y-84185000D03*
X53956000Y-84185000D03*
X54756000Y-84185000D03*
X55556000Y-84185000D03*
X56356000Y-84185000D03*
X57156000Y-84185000D03*
D15*
X58531000Y-82810000D03*
X58531000Y-82010000D03*
X58531000Y-81210000D03*
X58531000Y-80410000D03*
X58531000Y-79610000D03*
X58531000Y-78810000D03*
X58531000Y-78010000D03*
X58531000Y-77210000D03*
D16*
X57156000Y-75835000D03*
X56356000Y-75835000D03*
X55556000Y-75835000D03*
X54756000Y-75835000D03*
X53956000Y-75835000D03*
X53156000Y-75835000D03*
X52356000Y-75835000D03*
X51556000Y-75835000D03*
%TD*%
D10*
%TO.C,R3*%
X37338000Y-71565000D03*
X37338000Y-73215000D03*
%TD*%
D11*
%TO.C,R44*%
X173799000Y-89154000D03*
X172149000Y-89154000D03*
%TD*%
%TO.C,R37*%
X195389000Y-89154000D03*
X193739000Y-89154000D03*
%TD*%
%TO.C,R25*%
X109029000Y-75946000D03*
X107379000Y-75946000D03*
%TD*%
%TO.C,R57*%
X91249000Y-89154000D03*
X89599000Y-89154000D03*
%TD*%
D17*
%TO.C,C5*%
X56896000Y-97602000D03*
X56896000Y-99502000D03*
%TD*%
D10*
%TO.C,R2*%
X37338000Y-76645000D03*
X37338000Y-78295000D03*
%TD*%
%TO.C,R8*%
X55118000Y-106109000D03*
X55118000Y-107759000D03*
%TD*%
D11*
%TO.C,R23*%
X114109000Y-75946000D03*
X112459000Y-75946000D03*
%TD*%
%TO.C,R53*%
X101409000Y-89154000D03*
X99759000Y-89154000D03*
%TD*%
%TO.C,R13*%
X192849000Y-75946000D03*
X191199000Y-75946000D03*
%TD*%
%TO.C,R28*%
X150939000Y-75946000D03*
X149289000Y-75946000D03*
%TD*%
%TO.C,R5*%
X42227000Y-66548000D03*
X40577000Y-66548000D03*
%TD*%
%TO.C,R18*%
X176339000Y-75946000D03*
X174689000Y-75946000D03*
%TD*%
%TO.C,R48*%
X163639000Y-89154000D03*
X161989000Y-89154000D03*
%TD*%
%TO.C,R59*%
X86169000Y-89154000D03*
X84519000Y-89154000D03*
%TD*%
D17*
%TO.C,C2*%
X47244000Y-97602000D03*
X47244000Y-99502000D03*
%TD*%
D14*
%TO.C,C8*%
X47244000Y-79235000D03*
X47244000Y-80785000D03*
%TD*%
D18*
%TO.C,C7*%
X45212000Y-78789000D03*
X45212000Y-81739000D03*
%TD*%
D11*
%TO.C,R58*%
X138239000Y-89154000D03*
X136589000Y-89154000D03*
%TD*%
D13*
%TO.C,D2*%
X58674000Y-111277500D03*
X58674000Y-109702500D03*
%TD*%
D11*
%TO.C,R6*%
X42227000Y-68072000D03*
X40577000Y-68072000D03*
%TD*%
%TO.C,R56*%
X143319000Y-89154000D03*
X141669000Y-89154000D03*
%TD*%
%TO.C,R55*%
X96329000Y-89154000D03*
X94679000Y-89154000D03*
%TD*%
%TO.C,R51*%
X106489000Y-89154000D03*
X104839000Y-89154000D03*
%TD*%
%TO.C,R31*%
X93789000Y-75946000D03*
X92139000Y-75946000D03*
%TD*%
%TO.C,R49*%
X111569000Y-89154000D03*
X109919000Y-89154000D03*
%TD*%
%TO.C,R43*%
X126809000Y-89154000D03*
X125159000Y-89154000D03*
%TD*%
D19*
%TO.C,U1*%
X50932500Y-98110000D03*
X50932500Y-99060000D03*
X50932500Y-100010000D03*
X53207500Y-100010000D03*
X53207500Y-98110000D03*
%TD*%
D11*
%TO.C,R47*%
X116649000Y-89154000D03*
X114999000Y-89154000D03*
%TD*%
%TO.C,R26*%
X156019000Y-75946000D03*
X154369000Y-75946000D03*
%TD*%
%TO.C,R36*%
X190309000Y-89154000D03*
X188659000Y-89154000D03*
%TD*%
%TO.C,R50*%
X158559000Y-89154000D03*
X156909000Y-89154000D03*
%TD*%
%TO.C,R12*%
X187769000Y-75946000D03*
X186119000Y-75946000D03*
%TD*%
D10*
%TO.C,R10*%
X58674000Y-106109000D03*
X58674000Y-107759000D03*
%TD*%
D11*
%TO.C,R24*%
X161099000Y-75946000D03*
X159449000Y-75946000D03*
%TD*%
%TO.C,R7*%
X42227000Y-69596000D03*
X40577000Y-69596000D03*
%TD*%
%TO.C,R22*%
X166179000Y-75946000D03*
X164529000Y-75946000D03*
%TD*%
%TO.C,R1*%
X39941000Y-83312000D03*
X38291000Y-83312000D03*
%TD*%
D20*
%TO.C,R9*%
X53277000Y-57912000D03*
X54927000Y-57912000D03*
%TD*%
M02*
