%TF.GenerationSoftware,KiCad,Pcbnew,6.0.0*%
%TF.CreationDate,2022-01-11T19:34:27+01:00*%
%TF.ProjectId,main,6d61696e-2e6b-4696-9361-645f70636258,v.1.1.0*%
%TF.SameCoordinates,Original*%
%TF.FileFunction,Soldermask,Bot*%
%TF.FilePolarity,Negative*%
%FSLAX46Y46*%
G04 Gerber Fmt 4.6, Leading zero omitted, Abs format (unit mm)*
G04 Created by KiCad (PCBNEW 6.0.0) date 2022-01-11 19:34:27*
%MOMM*%
%LPD*%
G01*
G04 APERTURE LIST*
G04 Aperture macros list*
%AMRoundRect*
0 Rectangle with rounded corners*
0 $1 Rounding radius*
0 $2 $3 $4 $5 $6 $7 $8 $9 X,Y pos of 4 corners*
0 Add a 4 corners polygon primitive as box body*
4,1,4,$2,$3,$4,$5,$6,$7,$8,$9,$2,$3,0*
0 Add four circle primitives for the rounded corners*
1,1,$1+$1,$2,$3*
1,1,$1+$1,$4,$5*
1,1,$1+$1,$6,$7*
1,1,$1+$1,$8,$9*
0 Add four rect primitives between the rounded corners*
20,1,$1+$1,$2,$3,$4,$5,0*
20,1,$1+$1,$4,$5,$6,$7,0*
20,1,$1+$1,$6,$7,$8,$9,0*
20,1,$1+$1,$8,$9,$2,$3,0*%
G04 Aperture macros list end*
%ADD10R,1.700000X1.700000*%
%ADD11O,1.700000X1.700000*%
%ADD12C,3.000000*%
%ADD13R,2.600000X2.600000*%
%ADD14C,2.600000*%
%ADD15R,1.600000X1.600000*%
%ADD16O,1.600000X1.600000*%
%ADD17C,1.600000*%
%ADD18C,2.850000*%
%ADD19RoundRect,0.249999X0.525001X-0.525001X0.525001X0.525001X-0.525001X0.525001X-0.525001X-0.525001X0*%
%ADD20C,1.550000*%
%ADD21RoundRect,0.250000X-0.362500X-1.425000X0.362500X-1.425000X0.362500X1.425000X-0.362500X1.425000X0*%
G04 APERTURE END LIST*
D10*
%TO.C,J2*%
X56642000Y-63500000D03*
D11*
X56642000Y-60960000D03*
X56642000Y-58420000D03*
X56642000Y-55880000D03*
X56642000Y-53340000D03*
%TD*%
D12*
%TO.C,TP2*%
X67310000Y-100330000D03*
%TD*%
D13*
%TO.C,J5*%
X138430000Y-57404000D03*
D14*
X143510000Y-57404000D03*
X148590000Y-57404000D03*
X153670000Y-57404000D03*
X158750000Y-57404000D03*
X163830000Y-57404000D03*
X168910000Y-57404000D03*
X173990000Y-57404000D03*
X179070000Y-57404000D03*
X184150000Y-57404000D03*
%TD*%
D13*
%TO.C,J4*%
X190500000Y-57404000D03*
D14*
X195580000Y-57404000D03*
%TD*%
D15*
%TO.C,U19*%
X99060000Y-73660000D03*
D16*
X101600000Y-73660000D03*
X101600000Y-66040000D03*
X99060000Y-66040000D03*
%TD*%
D15*
%TO.C,U34*%
X168910000Y-91440000D03*
D16*
X166370000Y-91440000D03*
X166370000Y-99060000D03*
X168910000Y-99060000D03*
%TD*%
D12*
%TO.C,TP6*%
X48200000Y-55880000D03*
%TD*%
D15*
%TO.C,U41*%
X101600000Y-91440000D03*
D16*
X99060000Y-91440000D03*
X99060000Y-99060000D03*
X101600000Y-99060000D03*
%TD*%
D15*
%TO.C,U42*%
X148590000Y-91440000D03*
D16*
X146050000Y-91440000D03*
X146050000Y-99060000D03*
X148590000Y-99060000D03*
%TD*%
D15*
%TO.C,U36*%
X163830000Y-91440000D03*
D16*
X161290000Y-91440000D03*
X161290000Y-99060000D03*
X163830000Y-99060000D03*
%TD*%
D15*
%TO.C,U31*%
X127000000Y-91440000D03*
D16*
X124460000Y-91440000D03*
X124460000Y-99060000D03*
X127000000Y-99060000D03*
%TD*%
D15*
%TO.C,U11*%
X119380000Y-73660000D03*
D16*
X121920000Y-73660000D03*
X121920000Y-66040000D03*
X119380000Y-66040000D03*
%TD*%
D15*
%TO.C,U6*%
X181610000Y-73660000D03*
D16*
X184150000Y-73660000D03*
X184150000Y-66040000D03*
X181610000Y-66040000D03*
%TD*%
D15*
%TO.C,U20*%
X146050000Y-73660000D03*
D16*
X148590000Y-73660000D03*
X148590000Y-66040000D03*
X146050000Y-66040000D03*
%TD*%
D15*
%TO.C,U44*%
X143510000Y-91440000D03*
D16*
X140970000Y-91440000D03*
X140970000Y-99060000D03*
X143510000Y-99060000D03*
%TD*%
D15*
%TO.C,U12*%
X166370000Y-73660000D03*
D16*
X168910000Y-73660000D03*
X168910000Y-66040000D03*
X166370000Y-66040000D03*
%TD*%
D15*
%TO.C,U4*%
X187960000Y-73660000D03*
D16*
X190500000Y-73660000D03*
X190500000Y-66040000D03*
X187960000Y-66040000D03*
%TD*%
D15*
%TO.C,U13*%
X114300000Y-73660000D03*
D16*
X116840000Y-73660000D03*
X116840000Y-66040000D03*
X114300000Y-66040000D03*
%TD*%
D15*
%TO.C,U8*%
X176530000Y-73660000D03*
D16*
X179070000Y-73660000D03*
X179070000Y-66040000D03*
X176530000Y-66040000D03*
%TD*%
D15*
%TO.C,U7*%
X129540000Y-73660000D03*
D16*
X132080000Y-73660000D03*
X132080000Y-66040000D03*
X129540000Y-66040000D03*
%TD*%
D15*
%TO.C,U18*%
X151130000Y-73660000D03*
D16*
X153670000Y-73660000D03*
X153670000Y-66040000D03*
X151130000Y-66040000D03*
%TD*%
D15*
%TO.C,C1*%
X41148000Y-91440000D03*
D17*
X41148000Y-93940000D03*
%TD*%
D15*
%TO.C,U24*%
X135890000Y-73660000D03*
D16*
X138430000Y-73660000D03*
X138430000Y-66040000D03*
X135890000Y-66040000D03*
%TD*%
D12*
%TO.C,TP5*%
X43150000Y-55880000D03*
%TD*%
D15*
%TO.C,U43*%
X96520000Y-91440000D03*
D16*
X93980000Y-91440000D03*
X93980000Y-99060000D03*
X96520000Y-99060000D03*
%TD*%
D15*
%TO.C,U25*%
X83820000Y-73660000D03*
D16*
X86360000Y-73660000D03*
X86360000Y-66040000D03*
X83820000Y-66040000D03*
%TD*%
D15*
%TO.C,U17*%
X104140000Y-73660000D03*
D16*
X106680000Y-73660000D03*
X106680000Y-66040000D03*
X104140000Y-66040000D03*
%TD*%
D15*
%TO.C,U10*%
X171450000Y-73660000D03*
D16*
X173990000Y-73660000D03*
X173990000Y-66040000D03*
X171450000Y-66040000D03*
%TD*%
D11*
%TO.C,J3*%
X65786000Y-53340000D03*
D10*
X65786000Y-55880000D03*
%TD*%
D15*
%TO.C,U38*%
X158750000Y-91440000D03*
D16*
X156210000Y-91440000D03*
X156210000Y-99060000D03*
X158750000Y-99060000D03*
%TD*%
D15*
%TO.C,U15*%
X109220000Y-73660000D03*
D16*
X111760000Y-73660000D03*
X111760000Y-66040000D03*
X109220000Y-66040000D03*
%TD*%
D15*
%TO.C,U5*%
X193040000Y-73660000D03*
D16*
X195580000Y-73660000D03*
X195580000Y-66040000D03*
X193040000Y-66040000D03*
%TD*%
D15*
%TO.C,U37*%
X111760000Y-91440000D03*
D16*
X109220000Y-91440000D03*
X109220000Y-99060000D03*
X111760000Y-99060000D03*
%TD*%
D15*
%TO.C,U22*%
X140970000Y-73660000D03*
D16*
X143510000Y-73660000D03*
X143510000Y-66040000D03*
X140970000Y-66040000D03*
%TD*%
D15*
%TO.C,U33*%
X121920000Y-91440000D03*
D16*
X119380000Y-91440000D03*
X119380000Y-99060000D03*
X121920000Y-99060000D03*
%TD*%
D18*
%TO.C,J1*%
X28160000Y-106685080D03*
X28160000Y-58425080D03*
D19*
X30700000Y-101605080D03*
D20*
X30700000Y-99065080D03*
X30700000Y-96525080D03*
X30700000Y-93985080D03*
X30700000Y-91445080D03*
X30700000Y-88905080D03*
X30700000Y-86365080D03*
X30700000Y-83825080D03*
X30700000Y-81285080D03*
X30700000Y-78745080D03*
X30700000Y-76205080D03*
X30700000Y-73665080D03*
X30700000Y-71125080D03*
X30700000Y-68585080D03*
X30700000Y-66045080D03*
X30700000Y-63505080D03*
X33240000Y-101605080D03*
X33240000Y-99065080D03*
X33240000Y-96525080D03*
X33240000Y-93985080D03*
X33240000Y-91445080D03*
X33240000Y-88905080D03*
X33240000Y-86365080D03*
X33240000Y-83825080D03*
X33240000Y-81285080D03*
X33240000Y-78745080D03*
X33240000Y-76205080D03*
X33240000Y-73665080D03*
X33240000Y-71125080D03*
X33240000Y-68585080D03*
X33240000Y-66045080D03*
X33240000Y-63505080D03*
%TD*%
D15*
%TO.C,U23*%
X88900000Y-73660000D03*
D16*
X91440000Y-73660000D03*
X91440000Y-66040000D03*
X88900000Y-66040000D03*
%TD*%
D15*
%TO.C,U39*%
X106680000Y-91440000D03*
D16*
X104140000Y-91440000D03*
X104140000Y-99060000D03*
X106680000Y-99060000D03*
%TD*%
D15*
%TO.C,U47*%
X86360000Y-91440000D03*
D16*
X83820000Y-91440000D03*
X83820000Y-99060000D03*
X86360000Y-99060000D03*
%TD*%
D15*
%TO.C,U46*%
X138430000Y-91440000D03*
D16*
X135890000Y-91440000D03*
X135890000Y-99060000D03*
X138430000Y-99060000D03*
%TD*%
D12*
%TO.C,TP1*%
X46990000Y-107950000D03*
%TD*%
D13*
%TO.C,J7*%
X195580000Y-107696000D03*
D14*
X190500000Y-107696000D03*
%TD*%
D13*
%TO.C,J9*%
X132080000Y-107696000D03*
D14*
X127000000Y-107696000D03*
X121920000Y-107696000D03*
X116840000Y-107696000D03*
X111760000Y-107696000D03*
X106680000Y-107696000D03*
X101600000Y-107696000D03*
X96520000Y-107696000D03*
X91440000Y-107696000D03*
X86360000Y-107696000D03*
%TD*%
D12*
%TO.C,TP3*%
X67310000Y-105410000D03*
%TD*%
D15*
%TO.C,U16*%
X156210000Y-73660000D03*
D16*
X158750000Y-73660000D03*
X158750000Y-66040000D03*
X156210000Y-66040000D03*
%TD*%
D15*
%TO.C,U35*%
X116840000Y-91440000D03*
D16*
X114300000Y-91440000D03*
X114300000Y-99060000D03*
X116840000Y-99060000D03*
%TD*%
D15*
%TO.C,U9*%
X124460000Y-73660000D03*
D16*
X127000000Y-73660000D03*
X127000000Y-66040000D03*
X124460000Y-66040000D03*
%TD*%
D15*
%TO.C,U21*%
X93980000Y-73660000D03*
D16*
X96520000Y-73660000D03*
X96520000Y-66040000D03*
X93980000Y-66040000D03*
%TD*%
D15*
%TO.C,U28*%
X184150000Y-91440000D03*
D16*
X181610000Y-91440000D03*
X181610000Y-99060000D03*
X184150000Y-99060000D03*
%TD*%
D15*
%TO.C,U29*%
X132080000Y-91440000D03*
D16*
X129540000Y-91440000D03*
X129540000Y-99060000D03*
X132080000Y-99060000D03*
%TD*%
D15*
%TO.C,U40*%
X153670000Y-91440000D03*
D16*
X151130000Y-91440000D03*
X151130000Y-99060000D03*
X153670000Y-99060000D03*
%TD*%
D15*
%TO.C,U45*%
X91440000Y-91440000D03*
D16*
X88900000Y-91440000D03*
X88900000Y-99060000D03*
X91440000Y-99060000D03*
%TD*%
D15*
%TO.C,U14*%
X161290000Y-73660000D03*
D16*
X163830000Y-73660000D03*
X163830000Y-66040000D03*
X161290000Y-66040000D03*
%TD*%
D15*
%TO.C,U26*%
X190500000Y-91440000D03*
D16*
X187960000Y-91440000D03*
X187960000Y-99060000D03*
X190500000Y-99060000D03*
%TD*%
D15*
%TO.C,U32*%
X173990000Y-91440000D03*
D16*
X171450000Y-91440000D03*
X171450000Y-99060000D03*
X173990000Y-99060000D03*
%TD*%
D15*
%TO.C,U30*%
X179070000Y-91440000D03*
D16*
X176530000Y-91440000D03*
X176530000Y-99060000D03*
X179070000Y-99060000D03*
%TD*%
D13*
%TO.C,J8*%
X184150000Y-107696000D03*
D14*
X179070000Y-107696000D03*
X173990000Y-107696000D03*
X168910000Y-107696000D03*
X163830000Y-107696000D03*
X158750000Y-107696000D03*
X153670000Y-107696000D03*
X148590000Y-107696000D03*
X143510000Y-107696000D03*
X138430000Y-107696000D03*
%TD*%
D12*
%TO.C,TP4*%
X38100000Y-55880000D03*
%TD*%
D15*
%TO.C,U27*%
X195580000Y-91440000D03*
D16*
X193040000Y-91440000D03*
X193040000Y-99060000D03*
X195580000Y-99060000D03*
%TD*%
D13*
%TO.C,J6*%
X86360000Y-57404000D03*
D14*
X91440000Y-57404000D03*
X96520000Y-57404000D03*
X101600000Y-57404000D03*
X106680000Y-57404000D03*
X111760000Y-57404000D03*
X116840000Y-57404000D03*
X121920000Y-57404000D03*
X127000000Y-57404000D03*
X132080000Y-57404000D03*
%TD*%
D21*
%TO.C,R40*%
X178647500Y-102616000D03*
X184572500Y-102616000D03*
%TD*%
%TO.C,R41*%
X126577500Y-102616000D03*
X132502500Y-102616000D03*
%TD*%
%TO.C,R16*%
X178647500Y-62484000D03*
X184572500Y-62484000D03*
%TD*%
%TO.C,R17*%
X126577500Y-62484000D03*
X132502500Y-62484000D03*
%TD*%
M02*
