%TF.GenerationSoftware,KiCad,Pcbnew,6.0.0*%
%TF.CreationDate,2022-01-11T19:34:27+01:00*%
%TF.ProjectId,main,6d61696e-2e6b-4696-9361-645f70636258,v.1.1.0*%
%TF.SameCoordinates,Original*%
%TF.FileFunction,Soldermask,Top*%
%TF.FilePolarity,Negative*%
%FSLAX46Y46*%
G04 Gerber Fmt 4.6, Leading zero omitted, Abs format (unit mm)*
G04 Created by KiCad (PCBNEW 6.0.0) date 2022-01-11 19:34:27*
%MOMM*%
%LPD*%
G01*
G04 APERTURE LIST*
G04 Aperture macros list*
%AMRoundRect*
0 Rectangle with rounded corners*
0 $1 Rounding radius*
0 $2 $3 $4 $5 $6 $7 $8 $9 X,Y pos of 4 corners*
0 Add a 4 corners polygon primitive as box body*
4,1,4,$2,$3,$4,$5,$6,$7,$8,$9,$2,$3,0*
0 Add four circle primitives for the rounded corners*
1,1,$1+$1,$2,$3*
1,1,$1+$1,$4,$5*
1,1,$1+$1,$6,$7*
1,1,$1+$1,$8,$9*
0 Add four rect primitives between the rounded corners*
20,1,$1+$1,$2,$3,$4,$5,0*
20,1,$1+$1,$4,$5,$6,$7,0*
20,1,$1+$1,$6,$7,$8,$9,0*
20,1,$1+$1,$8,$9,$2,$3,0*%
G04 Aperture macros list end*
%ADD10R,1.700000X1.700000*%
%ADD11O,1.700000X1.700000*%
%ADD12C,3.000000*%
%ADD13R,2.600000X2.600000*%
%ADD14C,2.600000*%
%ADD15RoundRect,0.200000X-0.275000X0.200000X-0.275000X-0.200000X0.275000X-0.200000X0.275000X0.200000X0*%
%ADD16RoundRect,0.200000X0.200000X0.275000X-0.200000X0.275000X-0.200000X-0.275000X0.200000X-0.275000X0*%
%ADD17R,1.600000X1.600000*%
%ADD18O,1.600000X1.600000*%
%ADD19RoundRect,0.225000X-0.225000X-0.250000X0.225000X-0.250000X0.225000X0.250000X-0.225000X0.250000X0*%
%ADD20R,1.000000X1.500000*%
%ADD21RoundRect,0.218750X0.256250X-0.218750X0.256250X0.218750X-0.256250X0.218750X-0.256250X-0.218750X0*%
%ADD22RoundRect,0.225000X-0.250000X0.225000X-0.250000X-0.225000X0.250000X-0.225000X0.250000X0.225000X0*%
%ADD23C,1.600000*%
%ADD24RoundRect,0.125000X-0.625000X-0.125000X0.625000X-0.125000X0.625000X0.125000X-0.625000X0.125000X0*%
%ADD25RoundRect,0.125000X-0.125000X-0.625000X0.125000X-0.625000X0.125000X0.625000X-0.125000X0.625000X0*%
%ADD26RoundRect,0.250000X-0.475000X0.250000X-0.475000X-0.250000X0.475000X-0.250000X0.475000X0.250000X0*%
%ADD27C,2.850000*%
%ADD28RoundRect,0.249999X0.525001X-0.525001X0.525001X0.525001X-0.525001X0.525001X-0.525001X-0.525001X0*%
%ADD29C,1.550000*%
%ADD30RoundRect,0.250000X-0.650000X0.325000X-0.650000X-0.325000X0.650000X-0.325000X0.650000X0.325000X0*%
%ADD31RoundRect,0.150000X-0.512500X-0.150000X0.512500X-0.150000X0.512500X0.150000X-0.512500X0.150000X0*%
G04 APERTURE END LIST*
D10*
%TO.C,J2*%
X56642000Y-63500000D03*
D11*
X56642000Y-60960000D03*
X56642000Y-58420000D03*
X56642000Y-55880000D03*
X56642000Y-53340000D03*
%TD*%
D12*
%TO.C,TP2*%
X67310000Y-100330000D03*
%TD*%
D13*
%TO.C,J5*%
X138430000Y-57404000D03*
D14*
X143510000Y-57404000D03*
X148590000Y-57404000D03*
X153670000Y-57404000D03*
X158750000Y-57404000D03*
X163830000Y-57404000D03*
X168910000Y-57404000D03*
X173990000Y-57404000D03*
X179070000Y-57404000D03*
X184150000Y-57404000D03*
%TD*%
D13*
%TO.C,J4*%
X190500000Y-57404000D03*
D14*
X195580000Y-57404000D03*
%TD*%
D15*
%TO.C,R11*%
X64770000Y-62929000D03*
X64770000Y-64579000D03*
%TD*%
D16*
%TO.C,R38*%
X183959000Y-89154000D03*
X182309000Y-89154000D03*
%TD*%
D17*
%TO.C,U19*%
X99060000Y-73660000D03*
D18*
X101600000Y-73660000D03*
X101600000Y-66040000D03*
X99060000Y-66040000D03*
%TD*%
D15*
%TO.C,R4*%
X37338000Y-66485000D03*
X37338000Y-68135000D03*
%TD*%
D17*
%TO.C,U34*%
X168910000Y-91440000D03*
D18*
X166370000Y-91440000D03*
X166370000Y-99060000D03*
X168910000Y-99060000D03*
%TD*%
D16*
%TO.C,R30*%
X145859000Y-75946000D03*
X144209000Y-75946000D03*
%TD*%
D19*
%TO.C,C3*%
X53581000Y-102616000D03*
X55131000Y-102616000D03*
%TD*%
D12*
%TO.C,TP6*%
X48200000Y-55880000D03*
%TD*%
D17*
%TO.C,U41*%
X101600000Y-91440000D03*
D18*
X99060000Y-91440000D03*
X99060000Y-99060000D03*
X101600000Y-99060000D03*
%TD*%
D17*
%TO.C,U42*%
X148590000Y-91440000D03*
D18*
X146050000Y-91440000D03*
X146050000Y-99060000D03*
X148590000Y-99060000D03*
%TD*%
D16*
%TO.C,R15*%
X129349000Y-75946000D03*
X127699000Y-75946000D03*
%TD*%
D17*
%TO.C,U36*%
X163830000Y-91440000D03*
D18*
X161290000Y-91440000D03*
X161290000Y-99060000D03*
X163830000Y-99060000D03*
%TD*%
D17*
%TO.C,U31*%
X127000000Y-91440000D03*
D18*
X124460000Y-91440000D03*
X124460000Y-99060000D03*
X127000000Y-99060000D03*
%TD*%
D16*
%TO.C,R35*%
X83629000Y-75946000D03*
X81979000Y-75946000D03*
%TD*%
D17*
%TO.C,U11*%
X119380000Y-73660000D03*
D18*
X121920000Y-73660000D03*
X121920000Y-66040000D03*
X119380000Y-66040000D03*
%TD*%
D17*
%TO.C,U6*%
X181610000Y-73660000D03*
D18*
X184150000Y-73660000D03*
X184150000Y-66040000D03*
X181610000Y-66040000D03*
%TD*%
D17*
%TO.C,U20*%
X146050000Y-73660000D03*
D18*
X148590000Y-73660000D03*
X148590000Y-66040000D03*
X146050000Y-66040000D03*
%TD*%
D17*
%TO.C,U44*%
X143510000Y-91440000D03*
D18*
X140970000Y-91440000D03*
X140970000Y-99060000D03*
X143510000Y-99060000D03*
%TD*%
D16*
%TO.C,R52*%
X153479000Y-89154000D03*
X151829000Y-89154000D03*
%TD*%
%TO.C,R33*%
X88709000Y-75946000D03*
X87059000Y-75946000D03*
%TD*%
%TO.C,R39*%
X131889000Y-89154000D03*
X130239000Y-89154000D03*
%TD*%
D17*
%TO.C,U12*%
X166370000Y-73660000D03*
D18*
X168910000Y-73660000D03*
X168910000Y-66040000D03*
X166370000Y-66040000D03*
%TD*%
D17*
%TO.C,U4*%
X187960000Y-73660000D03*
D18*
X190500000Y-73660000D03*
X190500000Y-66040000D03*
X187960000Y-66040000D03*
%TD*%
D17*
%TO.C,U13*%
X114300000Y-73660000D03*
D18*
X116840000Y-73660000D03*
X116840000Y-66040000D03*
X114300000Y-66040000D03*
%TD*%
D17*
%TO.C,U8*%
X176530000Y-73660000D03*
D18*
X179070000Y-73660000D03*
X179070000Y-66040000D03*
X176530000Y-66040000D03*
%TD*%
D16*
%TO.C,R27*%
X103949000Y-75946000D03*
X102299000Y-75946000D03*
%TD*%
D20*
%TO.C,JP1*%
X40035000Y-100330000D03*
X38735000Y-100330000D03*
X37435000Y-100330000D03*
%TD*%
D16*
%TO.C,R14*%
X181419000Y-75946000D03*
X179769000Y-75946000D03*
%TD*%
D17*
%TO.C,U7*%
X129540000Y-73660000D03*
D18*
X132080000Y-73660000D03*
X132080000Y-66040000D03*
X129540000Y-66040000D03*
%TD*%
D21*
%TO.C,D1*%
X55118000Y-111277500D03*
X55118000Y-109702500D03*
%TD*%
D16*
%TO.C,R45*%
X121729000Y-89154000D03*
X120079000Y-89154000D03*
%TD*%
D17*
%TO.C,U18*%
X151130000Y-73660000D03*
D18*
X153670000Y-73660000D03*
X153670000Y-66040000D03*
X151130000Y-66040000D03*
%TD*%
D22*
%TO.C,C6*%
X47244000Y-82537000D03*
X47244000Y-84087000D03*
%TD*%
D16*
%TO.C,R21*%
X119189000Y-75946000D03*
X117539000Y-75946000D03*
%TD*%
D17*
%TO.C,C1*%
X41148000Y-91440000D03*
D23*
X41148000Y-93940000D03*
%TD*%
D16*
%TO.C,R32*%
X140779000Y-75946000D03*
X139129000Y-75946000D03*
%TD*%
%TO.C,R34*%
X135699000Y-75946000D03*
X134049000Y-75946000D03*
%TD*%
%TO.C,R42*%
X178879000Y-89154000D03*
X177229000Y-89154000D03*
%TD*%
D17*
%TO.C,U24*%
X135890000Y-73660000D03*
D18*
X138430000Y-73660000D03*
X138430000Y-66040000D03*
X135890000Y-66040000D03*
%TD*%
D16*
%TO.C,R54*%
X148399000Y-89154000D03*
X146749000Y-89154000D03*
%TD*%
D12*
%TO.C,TP5*%
X43150000Y-55880000D03*
%TD*%
D16*
%TO.C,R29*%
X98869000Y-75946000D03*
X97219000Y-75946000D03*
%TD*%
%TO.C,R20*%
X171259000Y-75946000D03*
X169609000Y-75946000D03*
%TD*%
D17*
%TO.C,U43*%
X96520000Y-91440000D03*
D18*
X93980000Y-91440000D03*
X93980000Y-99060000D03*
X96520000Y-99060000D03*
%TD*%
D16*
%TO.C,R46*%
X168719000Y-89154000D03*
X167069000Y-89154000D03*
%TD*%
%TO.C,R19*%
X124269000Y-75946000D03*
X122619000Y-75946000D03*
%TD*%
D24*
%TO.C,U3*%
X50181000Y-77210000D03*
X50181000Y-78010000D03*
X50181000Y-78810000D03*
X50181000Y-79610000D03*
X50181000Y-80410000D03*
X50181000Y-81210000D03*
X50181000Y-82010000D03*
X50181000Y-82810000D03*
D25*
X51556000Y-84185000D03*
X52356000Y-84185000D03*
X53156000Y-84185000D03*
X53956000Y-84185000D03*
X54756000Y-84185000D03*
X55556000Y-84185000D03*
X56356000Y-84185000D03*
X57156000Y-84185000D03*
D24*
X58531000Y-82810000D03*
X58531000Y-82010000D03*
X58531000Y-81210000D03*
X58531000Y-80410000D03*
X58531000Y-79610000D03*
X58531000Y-78810000D03*
X58531000Y-78010000D03*
X58531000Y-77210000D03*
D25*
X57156000Y-75835000D03*
X56356000Y-75835000D03*
X55556000Y-75835000D03*
X54756000Y-75835000D03*
X53956000Y-75835000D03*
X53156000Y-75835000D03*
X52356000Y-75835000D03*
X51556000Y-75835000D03*
%TD*%
D15*
%TO.C,R3*%
X37338000Y-71565000D03*
X37338000Y-73215000D03*
%TD*%
D16*
%TO.C,R44*%
X173799000Y-89154000D03*
X172149000Y-89154000D03*
%TD*%
D17*
%TO.C,U25*%
X83820000Y-73660000D03*
D18*
X86360000Y-73660000D03*
X86360000Y-66040000D03*
X83820000Y-66040000D03*
%TD*%
D16*
%TO.C,R37*%
X195389000Y-89154000D03*
X193739000Y-89154000D03*
%TD*%
D17*
%TO.C,U17*%
X104140000Y-73660000D03*
D18*
X106680000Y-73660000D03*
X106680000Y-66040000D03*
X104140000Y-66040000D03*
%TD*%
D17*
%TO.C,U10*%
X171450000Y-73660000D03*
D18*
X173990000Y-73660000D03*
X173990000Y-66040000D03*
X171450000Y-66040000D03*
%TD*%
D16*
%TO.C,R25*%
X109029000Y-75946000D03*
X107379000Y-75946000D03*
%TD*%
D11*
%TO.C,J3*%
X65786000Y-53340000D03*
D10*
X65786000Y-55880000D03*
%TD*%
D15*
%TO.C,R9*%
X52832000Y-56325000D03*
X52832000Y-57975000D03*
%TD*%
D17*
%TO.C,U38*%
X158750000Y-91440000D03*
D18*
X156210000Y-91440000D03*
X156210000Y-99060000D03*
X158750000Y-99060000D03*
%TD*%
D16*
%TO.C,R57*%
X91249000Y-89154000D03*
X89599000Y-89154000D03*
%TD*%
D17*
%TO.C,U15*%
X109220000Y-73660000D03*
D18*
X111760000Y-73660000D03*
X111760000Y-66040000D03*
X109220000Y-66040000D03*
%TD*%
D26*
%TO.C,C5*%
X56896000Y-97602000D03*
X56896000Y-99502000D03*
%TD*%
D17*
%TO.C,U5*%
X193040000Y-73660000D03*
D18*
X195580000Y-73660000D03*
X195580000Y-66040000D03*
X193040000Y-66040000D03*
%TD*%
D15*
%TO.C,R2*%
X37338000Y-76645000D03*
X37338000Y-78295000D03*
%TD*%
D17*
%TO.C,U37*%
X111760000Y-91440000D03*
D18*
X109220000Y-91440000D03*
X109220000Y-99060000D03*
X111760000Y-99060000D03*
%TD*%
D15*
%TO.C,R8*%
X55118000Y-106109000D03*
X55118000Y-107759000D03*
%TD*%
D16*
%TO.C,R23*%
X114109000Y-75946000D03*
X112459000Y-75946000D03*
%TD*%
%TO.C,R53*%
X101409000Y-89154000D03*
X99759000Y-89154000D03*
%TD*%
%TO.C,R13*%
X192849000Y-75946000D03*
X191199000Y-75946000D03*
%TD*%
%TO.C,R28*%
X150939000Y-75946000D03*
X149289000Y-75946000D03*
%TD*%
%TO.C,R5*%
X42227000Y-66548000D03*
X40577000Y-66548000D03*
%TD*%
D17*
%TO.C,U22*%
X140970000Y-73660000D03*
D18*
X143510000Y-73660000D03*
X143510000Y-66040000D03*
X140970000Y-66040000D03*
%TD*%
D16*
%TO.C,R18*%
X176339000Y-75946000D03*
X174689000Y-75946000D03*
%TD*%
D17*
%TO.C,U33*%
X121920000Y-91440000D03*
D18*
X119380000Y-91440000D03*
X119380000Y-99060000D03*
X121920000Y-99060000D03*
%TD*%
D16*
%TO.C,R48*%
X163639000Y-89154000D03*
X161989000Y-89154000D03*
%TD*%
D27*
%TO.C,J1*%
X28160000Y-106685080D03*
X28160000Y-58425080D03*
D28*
X30700000Y-101605080D03*
D29*
X30700000Y-99065080D03*
X30700000Y-96525080D03*
X30700000Y-93985080D03*
X30700000Y-91445080D03*
X30700000Y-88905080D03*
X30700000Y-86365080D03*
X30700000Y-83825080D03*
X30700000Y-81285080D03*
X30700000Y-78745080D03*
X30700000Y-76205080D03*
X30700000Y-73665080D03*
X30700000Y-71125080D03*
X30700000Y-68585080D03*
X30700000Y-66045080D03*
X30700000Y-63505080D03*
X33240000Y-101605080D03*
X33240000Y-99065080D03*
X33240000Y-96525080D03*
X33240000Y-93985080D03*
X33240000Y-91445080D03*
X33240000Y-88905080D03*
X33240000Y-86365080D03*
X33240000Y-83825080D03*
X33240000Y-81285080D03*
X33240000Y-78745080D03*
X33240000Y-76205080D03*
X33240000Y-73665080D03*
X33240000Y-71125080D03*
X33240000Y-68585080D03*
X33240000Y-66045080D03*
X33240000Y-63505080D03*
%TD*%
D17*
%TO.C,U23*%
X88900000Y-73660000D03*
D18*
X91440000Y-73660000D03*
X91440000Y-66040000D03*
X88900000Y-66040000D03*
%TD*%
D17*
%TO.C,U39*%
X106680000Y-91440000D03*
D18*
X104140000Y-91440000D03*
X104140000Y-99060000D03*
X106680000Y-99060000D03*
%TD*%
D16*
%TO.C,R59*%
X86169000Y-89154000D03*
X84519000Y-89154000D03*
%TD*%
D17*
%TO.C,U47*%
X86360000Y-91440000D03*
D18*
X83820000Y-91440000D03*
X83820000Y-99060000D03*
X86360000Y-99060000D03*
%TD*%
D26*
%TO.C,C2*%
X47244000Y-97602000D03*
X47244000Y-99502000D03*
%TD*%
D17*
%TO.C,U46*%
X138430000Y-91440000D03*
D18*
X135890000Y-91440000D03*
X135890000Y-99060000D03*
X138430000Y-99060000D03*
%TD*%
D12*
%TO.C,TP1*%
X46990000Y-107950000D03*
%TD*%
D22*
%TO.C,C8*%
X47244000Y-79235000D03*
X47244000Y-80785000D03*
%TD*%
D13*
%TO.C,J7*%
X195580000Y-107696000D03*
D14*
X190500000Y-107696000D03*
%TD*%
D13*
%TO.C,J9*%
X132080000Y-107696000D03*
D14*
X127000000Y-107696000D03*
X121920000Y-107696000D03*
X116840000Y-107696000D03*
X111760000Y-107696000D03*
X106680000Y-107696000D03*
X101600000Y-107696000D03*
X96520000Y-107696000D03*
X91440000Y-107696000D03*
X86360000Y-107696000D03*
%TD*%
D30*
%TO.C,C7*%
X45212000Y-78789000D03*
X45212000Y-81739000D03*
%TD*%
D12*
%TO.C,TP3*%
X67310000Y-105410000D03*
%TD*%
D17*
%TO.C,U16*%
X156210000Y-73660000D03*
D18*
X158750000Y-73660000D03*
X158750000Y-66040000D03*
X156210000Y-66040000D03*
%TD*%
D17*
%TO.C,U35*%
X116840000Y-91440000D03*
D18*
X114300000Y-91440000D03*
X114300000Y-99060000D03*
X116840000Y-99060000D03*
%TD*%
D17*
%TO.C,U9*%
X124460000Y-73660000D03*
D18*
X127000000Y-73660000D03*
X127000000Y-66040000D03*
X124460000Y-66040000D03*
%TD*%
D16*
%TO.C,R58*%
X138239000Y-89154000D03*
X136589000Y-89154000D03*
%TD*%
D21*
%TO.C,D2*%
X58674000Y-111277500D03*
X58674000Y-109702500D03*
%TD*%
D16*
%TO.C,R6*%
X42227000Y-68072000D03*
X40577000Y-68072000D03*
%TD*%
%TO.C,R56*%
X143319000Y-89154000D03*
X141669000Y-89154000D03*
%TD*%
%TO.C,R55*%
X96329000Y-89154000D03*
X94679000Y-89154000D03*
%TD*%
D17*
%TO.C,U21*%
X93980000Y-73660000D03*
D18*
X96520000Y-73660000D03*
X96520000Y-66040000D03*
X93980000Y-66040000D03*
%TD*%
D16*
%TO.C,R51*%
X106489000Y-89154000D03*
X104839000Y-89154000D03*
%TD*%
%TO.C,R31*%
X93789000Y-75946000D03*
X92139000Y-75946000D03*
%TD*%
D17*
%TO.C,U28*%
X184150000Y-91440000D03*
D18*
X181610000Y-91440000D03*
X181610000Y-99060000D03*
X184150000Y-99060000D03*
%TD*%
D17*
%TO.C,U29*%
X132080000Y-91440000D03*
D18*
X129540000Y-91440000D03*
X129540000Y-99060000D03*
X132080000Y-99060000D03*
%TD*%
D16*
%TO.C,R49*%
X111569000Y-89154000D03*
X109919000Y-89154000D03*
%TD*%
D17*
%TO.C,U40*%
X153670000Y-91440000D03*
D18*
X151130000Y-91440000D03*
X151130000Y-99060000D03*
X153670000Y-99060000D03*
%TD*%
D16*
%TO.C,R43*%
X126809000Y-89154000D03*
X125159000Y-89154000D03*
%TD*%
D31*
%TO.C,U1*%
X50932500Y-98110000D03*
X50932500Y-99060000D03*
X50932500Y-100010000D03*
X53207500Y-100010000D03*
X53207500Y-98110000D03*
%TD*%
D17*
%TO.C,U45*%
X91440000Y-91440000D03*
D18*
X88900000Y-91440000D03*
X88900000Y-99060000D03*
X91440000Y-99060000D03*
%TD*%
D16*
%TO.C,R47*%
X116649000Y-89154000D03*
X114999000Y-89154000D03*
%TD*%
D17*
%TO.C,U14*%
X161290000Y-73660000D03*
D18*
X163830000Y-73660000D03*
X163830000Y-66040000D03*
X161290000Y-66040000D03*
%TD*%
D17*
%TO.C,U26*%
X190500000Y-91440000D03*
D18*
X187960000Y-91440000D03*
X187960000Y-99060000D03*
X190500000Y-99060000D03*
%TD*%
D16*
%TO.C,R26*%
X156019000Y-75946000D03*
X154369000Y-75946000D03*
%TD*%
D17*
%TO.C,U32*%
X173990000Y-91440000D03*
D18*
X171450000Y-91440000D03*
X171450000Y-99060000D03*
X173990000Y-99060000D03*
%TD*%
D16*
%TO.C,R36*%
X190309000Y-89154000D03*
X188659000Y-89154000D03*
%TD*%
D17*
%TO.C,U30*%
X179070000Y-91440000D03*
D18*
X176530000Y-91440000D03*
X176530000Y-99060000D03*
X179070000Y-99060000D03*
%TD*%
D16*
%TO.C,R50*%
X158559000Y-89154000D03*
X156909000Y-89154000D03*
%TD*%
%TO.C,R12*%
X187769000Y-75946000D03*
X186119000Y-75946000D03*
%TD*%
D15*
%TO.C,R10*%
X58674000Y-106109000D03*
X58674000Y-107759000D03*
%TD*%
D16*
%TO.C,R24*%
X161099000Y-75946000D03*
X159449000Y-75946000D03*
%TD*%
%TO.C,R7*%
X42227000Y-69596000D03*
X40577000Y-69596000D03*
%TD*%
%TO.C,R22*%
X166179000Y-75946000D03*
X164529000Y-75946000D03*
%TD*%
D13*
%TO.C,J8*%
X184150000Y-107696000D03*
D14*
X179070000Y-107696000D03*
X173990000Y-107696000D03*
X168910000Y-107696000D03*
X163830000Y-107696000D03*
X158750000Y-107696000D03*
X153670000Y-107696000D03*
X148590000Y-107696000D03*
X143510000Y-107696000D03*
X138430000Y-107696000D03*
%TD*%
D12*
%TO.C,TP4*%
X38100000Y-55880000D03*
%TD*%
D17*
%TO.C,U27*%
X195580000Y-91440000D03*
D18*
X193040000Y-91440000D03*
X193040000Y-99060000D03*
X195580000Y-99060000D03*
%TD*%
D13*
%TO.C,J6*%
X86360000Y-57404000D03*
D14*
X91440000Y-57404000D03*
X96520000Y-57404000D03*
X101600000Y-57404000D03*
X106680000Y-57404000D03*
X111760000Y-57404000D03*
X116840000Y-57404000D03*
X121920000Y-57404000D03*
X127000000Y-57404000D03*
X132080000Y-57404000D03*
%TD*%
D16*
%TO.C,R1*%
X39941000Y-83312000D03*
X38291000Y-83312000D03*
%TD*%
M02*
