%TF.GenerationSoftware,KiCad,Pcbnew,6.0.0*%
%TF.CreationDate,2022-01-11T14:05:16+01:00*%
%TF.ProjectId,main,6d61696e-2e6b-4696-9361-645f70636258,v.1.1.0*%
%TF.SameCoordinates,Original*%
%TF.FileFunction,Legend,Bot*%
%TF.FilePolarity,Positive*%
%FSLAX46Y46*%
G04 Gerber Fmt 4.6, Leading zero omitted, Abs format (unit mm)*
G04 Created by KiCad (PCBNEW 6.0.0) date 2022-01-11 14:05:16*
%MOMM*%
%LPD*%
G01*
G04 APERTURE LIST*
%ADD10C,0.150000*%
%ADD11C,0.120000*%
G04 APERTURE END LIST*
D10*
%TO.C,R40*%
X187840857Y-103068380D02*
X188174190Y-102592190D01*
X188412285Y-103068380D02*
X188412285Y-102068380D01*
X188031333Y-102068380D01*
X187936095Y-102116000D01*
X187888476Y-102163619D01*
X187840857Y-102258857D01*
X187840857Y-102401714D01*
X187888476Y-102496952D01*
X187936095Y-102544571D01*
X188031333Y-102592190D01*
X188412285Y-102592190D01*
X186983714Y-102401714D02*
X186983714Y-103068380D01*
X187221809Y-102020761D02*
X187459904Y-102735047D01*
X186840857Y-102735047D01*
X186269428Y-102068380D02*
X186174190Y-102068380D01*
X186078952Y-102116000D01*
X186031333Y-102163619D01*
X185983714Y-102258857D01*
X185936095Y-102449333D01*
X185936095Y-102687428D01*
X185983714Y-102877904D01*
X186031333Y-102973142D01*
X186078952Y-103020761D01*
X186174190Y-103068380D01*
X186269428Y-103068380D01*
X186364666Y-103020761D01*
X186412285Y-102973142D01*
X186459904Y-102877904D01*
X186507523Y-102687428D01*
X186507523Y-102449333D01*
X186459904Y-102258857D01*
X186412285Y-102163619D01*
X186364666Y-102116000D01*
X186269428Y-102068380D01*
%TO.C,R41*%
X135770857Y-103068380D02*
X136104190Y-102592190D01*
X136342285Y-103068380D02*
X136342285Y-102068380D01*
X135961333Y-102068380D01*
X135866095Y-102116000D01*
X135818476Y-102163619D01*
X135770857Y-102258857D01*
X135770857Y-102401714D01*
X135818476Y-102496952D01*
X135866095Y-102544571D01*
X135961333Y-102592190D01*
X136342285Y-102592190D01*
X134913714Y-102401714D02*
X134913714Y-103068380D01*
X135151809Y-102020761D02*
X135389904Y-102735047D01*
X134770857Y-102735047D01*
X133866095Y-103068380D02*
X134437523Y-103068380D01*
X134151809Y-103068380D02*
X134151809Y-102068380D01*
X134247047Y-102211238D01*
X134342285Y-102306476D01*
X134437523Y-102354095D01*
%TO.C,R16*%
X187840857Y-62936380D02*
X188174190Y-62460190D01*
X188412285Y-62936380D02*
X188412285Y-61936380D01*
X188031333Y-61936380D01*
X187936095Y-61984000D01*
X187888476Y-62031619D01*
X187840857Y-62126857D01*
X187840857Y-62269714D01*
X187888476Y-62364952D01*
X187936095Y-62412571D01*
X188031333Y-62460190D01*
X188412285Y-62460190D01*
X186888476Y-62936380D02*
X187459904Y-62936380D01*
X187174190Y-62936380D02*
X187174190Y-61936380D01*
X187269428Y-62079238D01*
X187364666Y-62174476D01*
X187459904Y-62222095D01*
X186031333Y-61936380D02*
X186221809Y-61936380D01*
X186317047Y-61984000D01*
X186364666Y-62031619D01*
X186459904Y-62174476D01*
X186507523Y-62364952D01*
X186507523Y-62745904D01*
X186459904Y-62841142D01*
X186412285Y-62888761D01*
X186317047Y-62936380D01*
X186126571Y-62936380D01*
X186031333Y-62888761D01*
X185983714Y-62841142D01*
X185936095Y-62745904D01*
X185936095Y-62507809D01*
X185983714Y-62412571D01*
X186031333Y-62364952D01*
X186126571Y-62317333D01*
X186317047Y-62317333D01*
X186412285Y-62364952D01*
X186459904Y-62412571D01*
X186507523Y-62507809D01*
%TO.C,R17*%
X136024857Y-62936380D02*
X136358190Y-62460190D01*
X136596285Y-62936380D02*
X136596285Y-61936380D01*
X136215333Y-61936380D01*
X136120095Y-61984000D01*
X136072476Y-62031619D01*
X136024857Y-62126857D01*
X136024857Y-62269714D01*
X136072476Y-62364952D01*
X136120095Y-62412571D01*
X136215333Y-62460190D01*
X136596285Y-62460190D01*
X135072476Y-62936380D02*
X135643904Y-62936380D01*
X135358190Y-62936380D02*
X135358190Y-61936380D01*
X135453428Y-62079238D01*
X135548666Y-62174476D01*
X135643904Y-62222095D01*
X134739142Y-61936380D02*
X134072476Y-61936380D01*
X134501047Y-62936380D01*
D11*
%TO.C,R40*%
X179432936Y-104326000D02*
X183787064Y-104326000D01*
X179432936Y-100906000D02*
X183787064Y-100906000D01*
%TO.C,R41*%
X127362936Y-100906000D02*
X131717064Y-100906000D01*
X127362936Y-104326000D02*
X131717064Y-104326000D01*
%TO.C,R16*%
X179432936Y-64194000D02*
X183787064Y-64194000D01*
X179432936Y-60774000D02*
X183787064Y-60774000D01*
%TO.C,R17*%
X127362936Y-60774000D02*
X131717064Y-60774000D01*
X127362936Y-64194000D02*
X131717064Y-64194000D01*
%TD*%
M02*
