%TF.GenerationSoftware,KiCad,Pcbnew,6.0.0*%
%TF.CreationDate,2022-01-11T19:34:27+01:00*%
%TF.ProjectId,main,6d61696e-2e6b-4696-9361-645f70636258,v.1.1.0*%
%TF.SameCoordinates,Original*%
%TF.FileFunction,Profile,NP*%
%FSLAX46Y46*%
G04 Gerber Fmt 4.6, Leading zero omitted, Abs format (unit mm)*
G04 Created by KiCad (PCBNEW 6.0.0) date 2022-01-11 19:34:27*
%MOMM*%
%LPD*%
G01*
G04 APERTURE LIST*
%TA.AperFunction,Profile*%
%ADD10C,0.050000*%
%TD*%
G04 APERTURE END LIST*
D10*
X222123000Y-47244000D02*
X224536000Y-47244000D01*
X27940000Y-48260000D02*
X221107000Y-48260000D01*
X250192516Y-48261761D02*
X251462516Y-48261761D01*
X25400000Y-114300000D02*
G75*
G03*
X27940000Y-116840000I2540001J1D01*
G01*
X225298000Y-48260000D02*
X225298000Y-48006000D01*
X221107000Y-48260000D02*
X222123000Y-47244000D01*
X201422000Y-111760000D02*
G75*
G03*
X201422000Y-113792000I0J-1016000D01*
G01*
X250444000Y-113792000D02*
X253492000Y-113792000D01*
X225298000Y-48006000D02*
G75*
G03*
X224536000Y-47244000I-762001J-1D01*
G01*
X253999997Y-114298248D02*
G75*
G03*
X253492000Y-113792000I-507998J-1753D01*
G01*
X254000000Y-111252000D02*
X254000000Y-53848000D01*
X250444000Y-53340000D02*
X253492000Y-53340000D01*
X25400000Y-114300000D02*
X25400000Y-50800000D01*
X253492000Y-51308000D02*
G75*
G03*
X253999997Y-50801752I-1J508001D01*
G01*
X250444000Y-51308000D02*
X253492000Y-51308000D01*
X250190000Y-116840000D02*
G75*
G03*
X232410000Y-116840000I-8890000J-12699998D01*
G01*
X232156000Y-51308000D02*
G75*
G03*
X250444000Y-51308000I9144000J15747996D01*
G01*
X253999996Y-50801752D02*
G75*
G03*
X251462516Y-48261761I-2537537J2453D01*
G01*
X27940000Y-116840000D02*
X221116600Y-116840000D01*
X225298000Y-116840000D02*
X232410000Y-116840000D01*
X201422000Y-51308000D02*
G75*
G03*
X201422000Y-53340000I0J-1016000D01*
G01*
X222123000Y-117856000D02*
X224536000Y-117856000D01*
X201422000Y-51308000D02*
X232156000Y-51308000D01*
X251460000Y-116840000D02*
G75*
G03*
X253999997Y-114298248I-1J2539999D01*
G01*
X201422000Y-111760000D02*
X232156000Y-111760000D01*
X232409999Y-48260001D02*
G75*
G03*
X250192516Y-48261761I8892516J12698243D01*
G01*
X250190000Y-116840000D02*
X251460000Y-116840000D01*
X27940000Y-48260000D02*
G75*
G03*
X25400000Y-50800000I1J-2540001D01*
G01*
X253492000Y-111760000D02*
G75*
G03*
X254000000Y-111252000I-1J508001D01*
G01*
X254000000Y-53848000D02*
G75*
G03*
X253492000Y-53340000I-508001J-1D01*
G01*
X250444000Y-111760000D02*
G75*
G03*
X232156000Y-111760000I-9144000J-17780003D01*
G01*
X232156000Y-53340000D02*
G75*
G03*
X250444000Y-53340000I9144000J17780003D01*
G01*
X225298000Y-117094000D02*
X225298000Y-116840000D01*
X250444000Y-111760000D02*
X253492000Y-111760000D01*
X201422000Y-113792000D02*
X232156000Y-113792000D01*
X225298000Y-48260000D02*
X232410000Y-48260000D01*
X201422000Y-53340000D02*
X232156000Y-53340000D01*
X224536000Y-117856000D02*
G75*
G03*
X225298000Y-117094000I-1J762001D01*
G01*
X250444000Y-113792000D02*
G75*
G03*
X232156000Y-113792000I-9144000J-15747996D01*
G01*
X221116600Y-116840000D02*
X222123000Y-117856000D01*
M02*
