M48
; DRILL file {KiCad 6.0.0} date 2022-01-11T14:05:21 CET
; FORMAT={-:-/ absolute / metric / decimal}
; #@! TF.CreationDate,2022-01-11T14:05:21+01:00
; #@! TF.GenerationSoftware,Kicad,Pcbnew,6.0.0
; #@! TF.FileFunction,Plated,1,2,PTH
FMAT,2
METRIC
; #@! TA.AperFunction,Plated,PTH,ViaDrill
T1C0.300
; #@! TA.AperFunction,Plated,PTH,ComponentDrill
T2C0.500
; #@! TA.AperFunction,Plated,PTH,ComponentDrill
T3C0.800
; #@! TA.AperFunction,Plated,PTH,ComponentDrill
T4C1.000
; #@! TA.AperFunction,Plated,PTH,ComponentDrill
T5C1.300
; #@! TA.AperFunction,Plated,PTH,ComponentDrill
T6C1.600
%
G90
G05
T1
X36.322Y-67.564
X36.322Y-72.644
X36.322Y-77.724
X40.894Y-83.312
X43.942Y-83.312
X45.212Y-80.645
X46.355Y-83.693
X48.133Y-80.264
X48.514Y-98.806
X48.895Y-80.391
X49.784Y-99.06
X50.038Y-75.438
X50.038Y-76.454
X51.943Y-77.343
X52.832Y-77.216
X54.61Y-101.6
X55.626Y-98.806
X56.134Y-110.744
X57.658Y-110.744
T2
X50.9Y-62.23
X52.15Y-62.23
X53.4Y-62.23
X54.65Y-62.23
X55.9Y-62.23
X57.15Y-62.23
T3
X41.148Y-91.44
X41.148Y-93.94
X83.82Y-66.04
X83.82Y-73.66
X83.82Y-91.44
X83.82Y-99.06
X86.36Y-66.04
X86.36Y-73.66
X86.36Y-91.44
X86.36Y-99.06
X88.9Y-66.04
X88.9Y-73.66
X88.9Y-91.44
X88.9Y-99.06
X91.44Y-66.04
X91.44Y-73.66
X91.44Y-91.44
X91.44Y-99.06
X93.98Y-66.04
X93.98Y-73.66
X93.98Y-91.44
X93.98Y-99.06
X96.52Y-66.04
X96.52Y-73.66
X96.52Y-91.44
X96.52Y-99.06
X99.06Y-66.04
X99.06Y-73.66
X99.06Y-91.44
X99.06Y-99.06
X101.6Y-66.04
X101.6Y-73.66
X101.6Y-91.44
X101.6Y-99.06
X104.14Y-66.04
X104.14Y-73.66
X104.14Y-91.44
X104.14Y-99.06
X106.68Y-66.04
X106.68Y-73.66
X106.68Y-91.44
X106.68Y-99.06
X109.22Y-66.04
X109.22Y-73.66
X109.22Y-91.44
X109.22Y-99.06
X111.76Y-66.04
X111.76Y-73.66
X111.76Y-91.44
X111.76Y-99.06
X114.3Y-66.04
X114.3Y-73.66
X114.3Y-91.44
X114.3Y-99.06
X116.84Y-66.04
X116.84Y-73.66
X116.84Y-91.44
X116.84Y-99.06
X119.38Y-66.04
X119.38Y-73.66
X119.38Y-91.44
X119.38Y-99.06
X121.92Y-66.04
X121.92Y-73.66
X121.92Y-91.44
X121.92Y-99.06
X124.46Y-66.04
X124.46Y-73.66
X124.46Y-91.44
X124.46Y-99.06
X127.0Y-66.04
X127.0Y-73.66
X127.0Y-91.44
X127.0Y-99.06
X129.54Y-66.04
X129.54Y-73.66
X129.54Y-91.44
X129.54Y-99.06
X132.08Y-66.04
X132.08Y-73.66
X132.08Y-91.44
X132.08Y-99.06
X135.89Y-66.04
X135.89Y-73.66
X135.89Y-91.44
X135.89Y-99.06
X138.43Y-66.04
X138.43Y-73.66
X138.43Y-91.44
X138.43Y-99.06
X140.97Y-66.04
X140.97Y-73.66
X140.97Y-91.44
X140.97Y-99.06
X143.51Y-66.04
X143.51Y-73.66
X143.51Y-91.44
X143.51Y-99.06
X146.05Y-66.04
X146.05Y-73.66
X146.05Y-91.44
X146.05Y-99.06
X148.59Y-66.04
X148.59Y-73.66
X148.59Y-91.44
X148.59Y-99.06
X151.13Y-66.04
X151.13Y-73.66
X151.13Y-91.44
X151.13Y-99.06
X153.67Y-66.04
X153.67Y-73.66
X153.67Y-91.44
X153.67Y-99.06
X156.21Y-66.04
X156.21Y-73.66
X156.21Y-91.44
X156.21Y-99.06
X158.75Y-66.04
X158.75Y-73.66
X158.75Y-91.44
X158.75Y-99.06
X161.29Y-66.04
X161.29Y-73.66
X161.29Y-91.44
X161.29Y-99.06
X163.83Y-66.04
X163.83Y-73.66
X163.83Y-91.44
X163.83Y-99.06
X166.37Y-66.04
X166.37Y-73.66
X166.37Y-91.44
X166.37Y-99.06
X168.91Y-66.04
X168.91Y-73.66
X168.91Y-91.44
X168.91Y-99.06
X171.45Y-66.04
X171.45Y-73.66
X171.45Y-91.44
X171.45Y-99.06
X173.99Y-66.04
X173.99Y-73.66
X173.99Y-91.44
X173.99Y-99.06
X176.53Y-66.04
X176.53Y-73.66
X176.53Y-91.44
X176.53Y-99.06
X179.07Y-66.04
X179.07Y-73.66
X179.07Y-91.44
X179.07Y-99.06
X181.61Y-66.04
X181.61Y-73.66
X181.61Y-91.44
X181.61Y-99.06
X184.15Y-66.04
X184.15Y-73.66
X184.15Y-91.44
X184.15Y-99.06
X187.96Y-66.04
X187.96Y-73.66
X187.96Y-91.44
X187.96Y-99.06
X190.5Y-66.04
X190.5Y-73.66
X190.5Y-91.44
X190.5Y-99.06
X193.04Y-66.04
X193.04Y-73.66
X193.04Y-91.44
X193.04Y-99.06
X195.58Y-66.04
X195.58Y-73.66
X195.58Y-91.44
X195.58Y-99.06
T4
X30.7Y-63.505
X30.7Y-66.045
X30.7Y-68.585
X30.7Y-71.125
X30.7Y-73.665
X30.7Y-76.205
X30.7Y-78.745
X30.7Y-81.285
X30.7Y-83.825
X30.7Y-86.365
X30.7Y-88.905
X30.7Y-91.445
X30.7Y-93.985
X30.7Y-96.525
X30.7Y-99.065
X30.7Y-101.605
X33.24Y-63.505
X33.24Y-66.045
X33.24Y-68.585
X33.24Y-71.125
X33.24Y-73.665
X33.24Y-76.205
X33.24Y-78.745
X33.24Y-81.285
X33.24Y-83.825
X33.24Y-86.365
X33.24Y-88.905
X33.24Y-91.445
X33.24Y-93.985
X33.24Y-96.525
X33.24Y-99.065
X33.24Y-101.605
X64.77Y-53.34
X64.77Y-55.88
T5
X86.36Y-57.404
X86.36Y-107.696
X91.44Y-57.404
X91.44Y-107.696
X96.52Y-57.404
X96.52Y-107.696
X101.6Y-57.404
X101.6Y-107.696
X106.68Y-57.404
X106.68Y-107.696
X111.76Y-57.404
X111.76Y-107.696
X116.84Y-57.404
X116.84Y-107.696
X121.92Y-57.404
X121.92Y-107.696
X127.0Y-57.404
X127.0Y-107.696
X132.08Y-57.404
X132.08Y-107.696
X138.43Y-57.404
X138.43Y-107.696
X143.51Y-57.404
X143.51Y-107.696
X148.59Y-57.404
X148.59Y-107.696
X153.67Y-57.404
X153.67Y-107.696
X158.75Y-57.404
X158.75Y-107.696
X163.83Y-57.404
X163.83Y-107.696
X168.91Y-57.404
X168.91Y-107.696
X173.99Y-57.404
X173.99Y-107.696
X179.07Y-57.404
X179.07Y-107.696
X184.15Y-57.404
X184.15Y-107.696
X190.5Y-57.404
X190.5Y-107.696
X195.58Y-57.404
X195.58Y-107.696
T6
X38.1Y-55.88
X43.15Y-55.88
X46.99Y-107.95
X48.2Y-55.88
X67.31Y-100.33
X67.31Y-105.41
T0
M30
